<svg id="visual" viewBox="0 0 540 960" width="540" height="960" xmlns="http://www.w3.org/2000/svg" xmlns:xlink="http://www.w3.org/1999/xlink" version="1.1"><rect x="0" y="0" width="540" height="960" fill="#3c0081"></rect><path d="M524 960L514.2 946.7C504.3 933.3 484.7 906.7 477.5 880C470.3 853.3 475.7 826.7 474.5 800C473.3 773.3 465.7 746.7 471 720C476.3 693.3 494.7 666.7 494.5 640C494.3 613.3 475.7 586.7 469 560C462.3 533.3 467.7 506.7 475.3 480C483 453.3 493 426.7 502.3 400C511.7 373.3 520.3 346.7 515.3 320C510.3 293.3 491.7 266.7 480 240C468.3 213.3 463.7 186.7 461.5 160C459.3 133.3 459.7 106.7 459.8 80C460 53.3 460 26.7 460 13.3L460 0" fill="none" stroke-linecap="round" stroke-linejoin="miter" stroke="#FF0008" stroke-width="40"></path></svg>