<svg id="visual" viewBox="0 0 540 960" width="540" height="960" xmlns="http://www.w3.org/2000/svg" xmlns:xlink="http://www.w3.org/1999/xlink" version="1.1"><rect x="0" y="0" width="540" height="960" fill="#3c0081"></rect><path d="M18 0L27.8 13.3C37.7 26.7 57.3 53.3 64.5 80C71.7 106.7 66.3 133.3 67.5 160C68.7 186.7 76.3 213.3 71 240C65.7 266.7 47.3 293.3 47.5 320C47.7 346.7 66.3 373.3 73 400C79.7 426.7 74.3 453.3 66.7 480C59 506.7 49 533.3 39.7 560C30.3 586.7 21.7 613.3 26.7 640C31.7 666.7 50.3 693.3 62 720C73.7 746.7 78.3 773.3 80.5 800C82.7 826.7 82.3 853.3 82.2 880C82 906.7 82 933.3 82 946.7L82 960" fill="none" stroke-linecap="round" stroke-linejoin="miter" stroke="#FF0008" stroke-width="40"></path></svg>